HIERARCHY
ROOT Hips
{
  OFFSET 0 0 0
  CHANNELS 6 Xposition Yposition Zposition Zrotation Xrotation Yrotation
  JOINT Spine
  {
    OFFSET 0 8.18577 0
    CHANNELS 3 Zrotation Xrotation Yrotation
    JOINT Spine1
    {
      OFFSET 0 23.9492 0
      CHANNELS 3 Zrotation Xrotation Yrotation
      JOINT Neck
      {
        OFFSET 0 23.8508 2.16826
        CHANNELS 3 Zrotation Xrotation Yrotation
        JOINT Head
        {
          OFFSET 0 13.9757 -1.99653
          CHANNELS 3 Zrotation Xrotation Yrotation
          End Site
          {
            OFFSET 0 24.9566 0
          }
        }
      }
      JOINT LeftShoulder
      {
        OFFSET 3.97939 22.162 -0.249083
        CHANNELS 3 Zrotation Xrotation Yrotation
        JOINT LeftArm
        {
          OFFSET 10.8129 0 0
          CHANNELS 3 Zrotation Xrotation Yrotation
          JOINT LeftForeArm
          {
            OFFSET 31.6972 0 0
            CHANNELS 3 Zrotation Xrotation Yrotation
            JOINT LeftHand
            {
              OFFSET 27.0474 0 0
              CHANNELS 3 Zrotation Xrotation Yrotation
              End Site
              {
                OFFSET 14.974 0 0
              }
            }
          }
        }
      }
      JOINT RightShoulder
      {
        OFFSET -4.00645 22.162 -0.249083
        CHANNELS 3 Zrotation Xrotation Yrotation
        JOINT RightArm
        {
          OFFSET -10.8129 0 0
          CHANNELS 3 Zrotation Xrotation Yrotation
          JOINT RightForeArm
          {
            OFFSET -31.6972 0 0
            CHANNELS 3 Zrotation Xrotation Yrotation
            JOINT RightHand
            {
              OFFSET -27.0474 0 0
              CHANNELS 3 Zrotation Xrotation Yrotation
              End Site
              {
                OFFSET -14.974 0 0
              }
            }
          }
        }
      }
    }
  }
  JOINT LeftUpLeg
  {
    OFFSET 9.98265 0 0
    CHANNELS 3 Zrotation Xrotation Yrotation
    JOINT LeftLeg
    {
      OFFSET 0 -38.5116 0
      CHANNELS 3 Zrotation Xrotation Yrotation
      JOINT LeftFoot
      {
        OFFSET 0 -44.7893 0
        CHANNELS 3 Zrotation Xrotation Yrotation
        JOINT LeftToeBase
        {
          OFFSET 0 -6.48872 14.974
          CHANNELS 3 Zrotation Xrotation Yrotation
          End Site
          {
            OFFSET 0 0 3.99306
          }
        }
      }
    }
  }
  JOINT RightUpLeg
  {
    OFFSET -9.98265 0 0
    CHANNELS 3 Zrotation Xrotation Yrotation
    JOINT RightLeg
    {
      OFFSET 0 -38.5116 0
      CHANNELS 3 Zrotation Xrotation Yrotation
      JOINT RightFoot
      {
        OFFSET 0 -44.7893 0
        CHANNELS 3 Zrotation Xrotation Yrotation
        JOINT RightToeBase
        {
          OFFSET 0 -6.48872 14.974
          CHANNELS 3 Zrotation Xrotation Yrotation
          End Site
          {
            OFFSET 0 0 3.99306
          }
        }
      }
    }
  }
}
MOTION
Frames:	20
Frame Time:	0.00833333
13.1016 84.1747 -28.1974 -151.5 -87.6663 62.6038 3.95047 -7.09045 9.89771 -3.4897 -4.19312 9.52514 1.65582 0.346461 -12.3082 14.7719 -16.3971 -8.9122 10.3277 -1.38597 12.0758 -18.6045 2.22564 3.47779 44.5417 -39.168 -63.3897 -24.5728 -11.0073 -8.85731 -18.9995 -3.20095 4.61009 15.9438 9.34531 12.7587 -20.4953 -2.07304 55.5443 -10.8378 10.2848 -15.3968 2.03868 -9.77238 -6.46211 -0.815483 16.6906 4.25713 -4.39894 30.7964 8.40369 4.77083e-015 3.18055e-015 -1.03368e-014 -1.31632 4.54302 0.774924 6.51231 15.4454 13.0293 27.8292 25.4938 -36.1537 -7.95139e-016 3.18055e-015 -2.38542e-015 
12.9569 84.0974 -28.1997 -145.456 -87.7309 68.1443 4.10865 -6.7843 9.78358 -3.63604 -4.53309 9.39602 2.00457 0.126245 -12.2339 14.8256 -16.3154 -8.88454 11.1727 -1.59752 11.8794 -17.4895 1.89056 3.04505 45.0692 -39.6961 -63.1918 -24.7963 -11.315 -9.15384 -18.6913 -3.32005 4.66524 15.7024 10.0748 12.8368 -20.3293 -1.91239 55.76 -10.1092 10.2571 -14.8743 2.42723 -8.11289 -6.38854 -1.0159 14.7182 4.51672 -4.16557 30.8571 7.69548 3.18055e-015 -6.36111e-015 5.96354e-015 -1.33694 5.51461 0.781037 6.04981 13.3462 12.8605 28.0922 25.9295 -36.3897 3.97569e-015 0 7.95139e-016 
12.8329 84.0347 -28.2085 -141.712 -87.7411 71.3999 4.12981 -6.49246 9.65757 -3.58594 -5.08408 9.26405 2.17991 0.0889643 -12.2495 15.0601 -16.2585 -8.86888 11.7522 -1.73305 11.6492 -16.2278 1.56739 2.49442 45.8381 -40.1796 -62.7132 -25.313 -11.4867 -9.66035 -18.2238 -3.1989 4.74393 15.1049 10.7771 12.9276 -19.7493 -1.803 56.1556 -10.4561 10.1677 -14.7009 2.72207 -6.8414 -6.33796 -1.02888 13.3072 4.61508 -3.67523 31.1049 6.77309 -4.77083e-015 6.36111e-015 -1.19271e-015 -1.45142 5.98721 0.800614 5.78354 11.8377 12.4434 28.2586 26.4222 -36.463 -1.59028e-015 -3.18055e-015 -0 
12.7177 83.9823 -28.2072 -140.184 -87.7158 72.4481 4.15904 -6.30361 9.47941 -3.52977 -5.56027 9.07885 2.26581 -0.0479931 -12.2708 15.2871 -16.0892 -8.86492 12.3193 -1.90158 11.4788 -14.9276 1.11949 1.9443 46.1124 -40.6645 -62.5771 -26.0625 -11.8339 -10.0446 -18.0235 -3.3128 4.87436 14.7749 11.5567 12.968 -19.0864 -1.62005 56.6283 -11.1528 10.1739 -14.6649 2.96509 -5.85252 -6.30058 -0.923559 12.2554 4.42153 -3.102 31.5668 5.81137 3.18055e-015 3.18055e-015 -4.77083e-015 -1.60144 6.16354 0.82514 5.57844 10.7453 12.8135 28.4385 26.4866 -36.6829 4.41391e-032 -3.18055e-015 7.95139e-016 
12.5988 83.9354 -28.195 -139.57 -87.7005 72.5811 4.27291 -6.16174 9.30638 -3.61582 -5.95356 8.88823 2.45256 -0.310145 -12.3114 15.4393 -15.8651 -8.92797 13.051 -2.20525 11.3248 -13.6359 0.600683 1.30751 45.7011 -41.0143 -62.9547 -26.63 -12.2668 -10.2495 -17.7018 -3.28837 4.93215 14.284 12.1382 13.0558 -18.6763 -1.32068 57.1167 -11.2082 10.3348 -14.4709 3.17521 -5.07098 -6.27176 -0.775548 11.5553 4.26661 -2.37107 32.1648 4.76453 -3.18055e-015 3.18055e-015 -3.18055e-015 -1.76008 6.1565 0.850162 5.41712 9.9394 13.4387 28.6394 26.2039 -36.9813 -2.38542e-015 -9.54166e-015 -0 
12.4896 83.8962 -28.1866 -139.316 -87.6712 72.3811 4.43019 -6.05276 9.06661 -3.77967 -6.2267 8.62669 2.52452 -0.67522 -12.3688 15.6928 -15.5506 -8.97854 13.7592 -2.51972 11.327 -12.3485 0.375234 0.559191 45.8682 -41.4194 -62.6516 -27.2551 -12.6814 -10.7164 -17.5833 -3.38877 5.06225 13.9552 12.7635 13.1232 -18.3768 -0.991052 57.6449 -10.8918 10.5421 -14.249 3.36714 -4.42923 -6.24856 -0.615972 11.0908 3.99705 -1.73182 32.8124 4.11555 -1.59028e-015 0 3.18055e-015 -1.95224 6.01647 0.879169 5.297 9.17062 13.3353 28.4848 26.4245 -36.5667 -2.38542e-015 -6.36111e-015 -0 
12.3888 83.8594 -28.1809 -139.397 -87.6493 71.8615 4.60449 -6.06176 8.80081 -3.89129 -6.27998 8.34342 2.35216 -0.883697 -12.4498 16.199 -15.4728 -8.91229 14.4448 -2.72038 11.1606 -11.1223 -0.493065 -0.0612744 45.1638 -41.5487 -63.104 -27.5555 -13.0081 -11.0023 -17.883 -3.85474 5.18947 14.042 13.5083 13.1775 -17.9258 -0.485839 58.1753 -11.2203 10.9256 -14.1645 3.55884 -3.88663 -6.22889 -0.390032 10.8342 3.85565 -1.29091 33.4049 3.33906 0 0 -7.95139e-016 -2.17211 5.78495 0.910747 5.23089 8.49302 13.0489 28.0693 26.6673 -35.762 4.41391e-032 -3.18055e-015 7.95139e-016 
12.2791 83.8068 -28.1911 -137.687 -87.6782 73.1297 4.78882 -5.97283 8.56245 -4.05874 -6.33707 8.08769 2.3731 -1.18815 -12.5858 16.4916 -15.3389 -9.00291 15.3539 -3.14444 11.0081 -10.0775 -1.09689 -0.765945 44.253 -41.5855 -63.8198 -27.4911 -13.3684 -10.8177 -18.1422 -4.31764 5.19374 14.1352 14.0982 13.1273 -17.4567 0.159898 58.8947 -11.545 11.4658 -14.0161 3.76999 -3.38116 -6.21094 -0.140173 10.8473 3.83189 -1.5236 34.0316 3.19029 -3.97569e-015 9.54166e-015 -4.77083e-015 -2.33242 5.54293 0.937495 5.23692 8.10473 13.8223 27.4346 25.815 -35.3919 7.95139e-016 9.54166e-015 -2.38542e-015 
12.1913 83.7569 -28.1947 -136.583 -87.7369 73.8076 4.88293 -5.73966 8.37878 -4.18458 -6.72301 7.88808 2.65248 -1.34825 -12.7455 16.5197 -15.2807 -9.21923 16.0619 -3.27803 10.7279 -8.85064 -1.87005 -1.65092 43.2326 -41.5493 -64.7181 -27.2698 -13.7005 -10.3693 -18.1394 -4.64722 5.10165 14.0983 15.1511 12.9122 -17.7675 0.457656 59.5415 -11.3648 12.0239 -13.8196 4.00422 -2.91854 -6.19493 0.206286 10.9311 3.75958 -1.96147 34.5069 3.08725 1.59028e-015 0 1.59028e-015 -2.65092 4.59977 0.935023 5.18588 7.81818 14.2177 28.7544 29.3288 -36.9961 0 0 -3.97569e-015 
12.1006 83.7054 -28.1956 -135.07 -87.7652 74.9261 4.8814 -5.51718 8.14054 -4.14068 -7.10976 7.64791 2.57212 -1.3659 -12.9653 16.845 -15.2319 -9.35514 16.6216 -3.46689 10.2927 -7.70245 -2.44687 -2.33602 42.1029 -41.7632 -65.4939 -27.3567 -14.4067 -10.2941 -18.3047 -4.97124 5.08176 14.0765 16.375 12.7725 -17.6995 0.526459 60.1058 -12.5258 12.2768 -13.5449 4.25651 -2.48137 -6.18111 0.448149 11.0387 3.94221 -2.04118 35.0382 2.7436 3.97569e-015 9.54166e-015 2.38542e-015 -3.4608 1.80661 0.862349 4.55569 7.59971 14.2004 39.962 42.4281 -47.3941 -9.93923e-016 3.18055e-015 -3.97569e-016 
12.007 83.6504 -28.1958 -133.445 -87.7902 76.1324 4.92909 -5.28794 7.94257 -4.26244 -7.47327 7.43627 2.73585 -1.46886 -13.1907 16.9509 -15.1406 -9.60492 17.2725 -3.57905 9.7808 -6.63557 -3.0442 -3.10025 41.6056 -41.9033 -65.8463 -27.4733 -14.8057 -10.103 -18.4306 -5.29524 4.98703 14.1309 17.2907 12.5577 -17.6972 0.919191 60.7821 -12.8928 12.8235 -13.4028 4.52011 -2.06815 -6.16987 0.620846 11.1539 4.36152 -1.75908 35.7859 2.19739 0 9.54166e-015 -0 -3.61395 0.556541 0.804171 3.9963 7.19971 14.2304 42.7554 44.9191 -47.9928 -5.96354e-016 -3.18055e-015 1.19271e-015 
11.917 83.613 -28.1906 -133 -87.7967 76.1783 5.07951 -5.07587 7.70427 -4.56556 -7.85845 7.1653 2.55999 -1.72667 -13.5442 17.479 -14.6208 -9.88629 17.8577 -3.60009 9.23403 -5.57186 -3.24615 -3.84373 41.8376 -42.2883 -65.4046 -27.4851 -15.3759 -10.0967 -18.5611 -5.63627 4.952 14.3046 17.9275 12.3632 -17.6795 1.53712 61.4654 -13.0143 13.5372 -13.0983 4.78371 -1.69194 -6.16145 0.771092 11.207 4.64287 -1.07702 36.4693 1.4974 -1.59028e-015 3.18055e-015 3.97569e-015 -3.62649 -0.352706 0.758332 3.47345 6.78239 14.2577 44.1191 46.3285 -48.4227 2.38542e-015 -6.36111e-015 -7.95139e-016 
11.8246 83.582 -28.1794 -132.398 -87.8041 76.4143 5.16301 -4.94907 7.46616 -4.74975 -8.05189 6.90848 2.34282 -2.03111 -13.8857 17.974 -14.189 -10.1482 18.526 -3.83157 8.67569 -4.60261 -3.57011 -4.55103 41.9478 -42.261 -65.273 -27.2737 -15.4192 -9.80029 -18.8064 -6.03414 4.88082 14.5102 19.0489 12.0965 -17.7726 1.57504 61.9212 -13.6171 13.7464 -12.7088 5.04238 -1.35152 -6.15606 0.92794 11.3028 4.8292 -0.933356 36.9822 1.37577 4.77083e-015 -6.36111e-015 6.36111e-015 -3.58473 -1.08117 0.722648 2.99805 6.3782 14.2805 44.8886 47.0877 -48.704 -2.18663e-015 3.18055e-015 -7.95139e-016 
11.7328 83.5361 -28.1812 -129.833 -87.8673 78.5854 5.20137 -4.74534 7.26239 -4.81798 -8.254 6.69891 2.41076 -1.92187 -14.1795 18.1355 -14.3573 -10.3974 19.2126 -4.20875 8.10374 -3.8446 -3.65041 -5.37586 42.7665 -42.2765 -64.68 -27.364 -15.2414 -9.40399 -19.1571 -6.38305 4.74563 14.7845 19.9409 11.8067 -17.7 1.79652 62.4059 -14.1925 14.0592 -12.5347 5.32206 -1.00202 -6.15251 1.15239 11.5351 4.86484 -1.12747 37.4056 1.54253 -3.18055e-015 0 -7.95139e-016 -3.48656 -1.65729 0.695723 2.5618 5.98319 14.2996 45.5325 47.916 -48.9128 4.96962e-015 0 1.59028e-015 
11.6458 83.4792 -28.1827 -126.231 -87.9395 81.7898 5.45196 -4.5298 6.9682 -5.25291 -8.44322 6.36456 2.54008 -1.91862 -14.394 18.3117 -14.1927 -10.6231 19.9283 -4.5164 7.67158 -2.94242 -3.95265 -6.36067 42.8072 -42.3906 -64.5892 -27.6198 -15.5163 -8.86941 -19.2239 -6.82408 4.79497 14.9416 20.6068 11.5786 -17.2834 2.28649 62.9926 -15.0664 14.5211 -12.7152 5.6278 -0.609268 -6.14905 1.34457 11.7097 4.92409 -1.37904 37.817 1.62944 3.97569e-015 6.36111e-015 1.59028e-015 -3.36711 -2.11126 0.676351 2.16762 5.60492 14.3152 46.169 48.4601 -49.2979 -1.98785e-016 0 -1.59028e-015 
11.5414 83.4484 -28.1736 -123.976 -87.9422 83.6977 5.72669 -4.50715 6.68435 -5.81118 -8.33981 6.0347 2.41706 -2.05288 -14.6802 18.9303 -13.9051 -10.7886 20.8419 -4.98427 7.15564 -2.1527 -4.15324 -7.1896 42.6434 -42.2186 -64.5813 -27.1971 -15.5758 -8.34445 -19.385 -7.37998 4.7046 15.2236 21.5066 11.4778 -16.9151 2.47629 63.2436 -16.0204 14.6208 -12.6242 5.86316 -0.572893 -6.15824 1.23987 11.6373 4.92633 -0.370052 40.7381 1.90122 -2.38542e-015 -6.36111e-015 -0 -3.31138 -2.48991 0.662997 1.83034 5.26576 14.327 46.855 48.2581 -50.0776 -3.97569e-016 0 -0 
11.4585 83.4301 -28.1414 -124.195 -87.9904 83.1437 5.58159 -4.51232 6.47458 -5.57639 -8.33072 5.84802 2.31432 -2.16216 -15.0881 19.0449 -13.8436 -11.1822 21.3193 -5.6023 6.61348 -1.43043 -3.83438 -8.2927 43.869 -42.1008 -63.4523 -27.0175 -15.2511 -7.97509 -20.0283 -7.83375 4.32826 15.6132 22.4397 11.2796 -16.6823 2.59493 63.5116 -16.646 14.6298 -12.0313 5.93672 -1.57513 -6.20017 1.11317 11.4216 4.93035 0.130091 49.9848 4.10493 -3.97569e-015 3.18055e-015 4.77083e-015 -3.21249 -2.84377 0.6521 1.52403 4.96142 14.3359 47.2797 48.2601 -50.186 1.98785e-016 3.18055e-015 7.95139e-016 
11.3567 83.3953 -28.1369 -120.32 -88.0078 86.6291 5.59781 -4.24225 6.19865 -5.71465 -8.68947 5.55666 2.53351 -1.63294 -15.3568 19.0636 -14.2298 -11.4217 21.8137 -5.89458 6.0829 -0.625964 -3.99617 -9.43388 43.7879 -41.9575 -63.3884 -26.7268 -15.3522 -7.23442 -20.2164 -8.16636 4.29873 15.8823 23.5746 11.0796 -16.7143 2.50273 63.6369 -16.9342 14.5691 -11.7127 6.13469 -2.02879 -6.22735 1.00737 11.1893 4.93472 0.0769918 54.5332 5.12289 3.97569e-015 3.18055e-015 3.18055e-015 -3.10438 -3.06183 0.647143 1.2517 4.66622 14.343 48.2186 48.652 -50.9779 2.78299e-015 3.18055e-015 -7.95139e-016 
11.2541 83.3782 -28.122 -117.867 -88.0495 88.6848 5.60397 -4.20622 5.91396 -5.65071 -8.57278 5.28415 2.21004 -2.42232 -15.7109 19.0485 -13.1442 -11.9377 22.353 -6.35922 5.56215 -0.047798 -4.49144 -10.3837 43.3032 -41.3418 -63.6236 -25.8135 -14.9965 -6.53058 -20.8607 -8.74995 4.05814 16.4426 24.7399 10.919 -16.8611 2.26816 63.8058 -17.379 14.4777 -11.4934 6.39478 -2.336 -6.25224 0.894722 10.9116 4.93941 -0.143191 57.9366 6.02889 3.18055e-015 -3.18055e-015 -6.36111e-015 -2.95394 -3.19273 0.646343 0.999765 4.38424 14.3485 49.0055 48.9809 -51.4197 1.59028e-015 0 -7.95139e-016 
11.151 83.3428 -28.1102 -114.345 -88.0794 91.8173 5.61041 -4.0162 5.6566 -5.77339 -8.87918 5.01108 2.57617 -1.82927 -15.951 18.9307 -13.6195 -12.1926 22.8018 -6.62834 4.88439 0.775485 -4.83769 -11.4883 42.6805 -40.7149 -63.8652 -24.7804 -14.7403 -5.76115 -21.0054 -9.05488 4.0462 16.8421 25.515 10.5891 -16.75 2.39118 63.9929 -18.124 14.5767 -11.0838 6.70749 -2.52287 -6.27481 0.774846 10.5797 4.94431 -0.297873 60.6628 6.3408 -3.18055e-015 0 -0 -2.75024 -3.19532 0.650588 0.763694 4.1038 14.3528 50.299 49.3364 -52.374 -7.95139e-016 0 1.59028e-015 
